# xmcd
#
# Track frame offsets:
#	150
#	10642
#	27961
#	44030
#	55639
#	79689
#	120944
#	132825
#	145874
#	168973
#	183508
#	205346
#
# Disc length: 3025 seconds
#
# Revision: 1
# Processed by: cddbd v1.5.2PL0 Copyright (c) Steve Scherf et al.
# Submitted via: audiograbber 1.83.01
#
DISCID=970bcf0c
DTITLE=Brass attack - Brass attack selected by DJ SOKO
DYEAR=2008
DGENRE=Brass band
TTITLE0=Fanfare Ciocarlia - Mr Lobaloba
TTITLE1=Frank London's klezmer brass allstars - In your garden fecund fruit tre
TTITLE1=es
TTITLE2=Boban Markovic orkestar - Hava naguila
TTITLE3=Fanfare Ciocarlia - Hora Cu Strigaturii
TTITLE4=Frank London's klezmer brass allstars - Freylekhs-Cocek
TTITLE5=The Klezmatics - Elijah rock
TTITLE6=Fanfare Ciocarlia - Casablanca
TTITLE7=Mahmoud Fadl - Halo aleina
TTITLE8=Boban Markovic orkestar - Ajde ajde fato
TTITLE9=Frank London's klezmer brass allstars - Mi yamalay
TTITLE10=Fanfare Ciocarlia - Ciacarla si suite
TTITLE11=Boban Markovic orkestar - Obecanje
EXTD=
EXTT0=
EXTT1=
EXTT2=
EXTT3=
EXTT4=
EXTT5=
EXTT6=
EXTT7=
EXTT8=
EXTT9=
EXTT10=
EXTT11=
PLAYORDER=
